Coordinates
version=1
nRows=60
nColumns=12
inDegrees=yes

Units are S.I. units (second, meters, Newtons, ...)
Angles are in degrees

endheader
time	SC_y	SC_z	SC_x	AC_y	AC_z	AC_x	GH_y	GH_z	GH_yy	EL_x	PS_y
       0.0              -21.34          32.92          9.285          63.06          7.659         -6.257          126.8          37.44         -131.1          48.11          112.1
   0.02463              -21.34          32.92          9.295          63.05          7.658         -6.256          126.8          37.44         -131.1          48.11          112.1
   0.04926              -21.34          32.91          9.306          63.05          7.657         -6.254          126.8          37.43         -131.1           48.1          112.0
   0.07389              -21.35          32.91          9.317          63.04          7.656         -6.253          126.7          37.43         -131.1           48.1          112.0
   0.09852              -21.35           32.9           9.33          63.04          7.655         -6.251          126.7          37.42         -131.1          48.09          112.0
    0.1231              -21.35          32.89          9.343          63.03          7.654         -6.249          126.6          37.42         -131.1          48.09          112.0
    0.1478              -21.36          32.89          9.356          63.02          7.653         -6.247          126.6          37.41         -131.1          48.08          112.0
    0.1724              -21.36          32.88          9.371          63.02          7.651         -6.245          126.6          37.41         -131.1          48.08          112.0
     0.197              -21.37          32.87          9.387          63.01           7.65         -6.243          126.5           37.4         -131.1          48.07          112.0
    0.2217              -21.37          32.86          9.404           63.0          7.648         -6.241          126.5           37.4         -131.2          48.06          112.0
    0.2463              -21.38          32.85          9.422          62.99          7.647         -6.238          126.4          37.39         -131.2          48.06          112.0
    0.2709              -21.38          32.84          9.442          62.99          7.645         -6.236          126.3          37.38         -131.2          48.05          112.0
    0.2956              -21.39          32.83          9.463          62.98          7.643         -6.233          126.3          37.37         -131.2          48.04          112.0
    0.3202               -21.4          32.82          9.485          62.97          7.641          -6.23          126.2          37.37         -131.2          48.03          112.0
    0.3448              -21.41          32.81           9.51          62.96          7.639         -6.226          126.1          37.36         -131.2          48.02          112.0
    0.3694              -21.41          32.79          9.537          62.94          7.636         -6.223          126.0          37.35         -131.2          48.01          112.0
    0.3941              -21.42          32.78          9.566          62.93          7.634         -6.219          125.9          37.34         -131.3           48.0          111.9
    0.4187              -21.43          32.76          9.598          62.92          7.631         -6.214          125.8          37.32         -131.3          47.99          111.9
    0.4433              -21.44          32.75          9.632           62.9          7.628         -6.209          125.7          37.31         -131.3          47.97          111.9
     0.468              -21.46          32.73           9.67          62.88          7.624         -6.204          125.6           37.3         -131.3          47.96          111.9
    0.4926              -21.47          32.71          9.712          62.86          7.621         -6.199          125.5          37.28         -131.3          47.94          111.9
    0.5172              -21.48          32.68          9.757          62.84          7.617         -6.192          125.3          37.26         -131.4          47.92          111.9
    0.5419               -21.5          32.66          9.808          62.82          7.612         -6.185          125.2          37.24         -131.4           47.9          111.8
    0.5665              -21.52          32.63          9.864           62.8          7.607         -6.178          125.0          37.22         -131.4          47.88          111.8
    0.5911              -21.53           32.6          9.926          62.77          7.601         -6.169          124.8           37.2         -131.5          47.86          111.8
    0.6157              -21.56          32.56          9.996          62.74          7.595          -6.16          124.5          37.17         -131.5          47.83          111.8
    0.6404              -21.58          32.52          10.07           62.7          7.588         -6.149          124.3          37.15         -131.5           47.8          111.7
     0.665              -21.61          32.48          10.16          62.66           7.58         -6.137          124.0          37.11         -131.6          47.77          111.7
    0.6896              -21.64          32.42          10.26          62.62          7.571         -6.124          123.7          37.08         -131.6          47.73          111.7
    0.7143              -21.67          32.37          10.37          62.57          7.561         -6.108          123.3          37.03         -131.7          47.68          111.6
    0.7389              -21.71           32.3           10.5          62.51          7.549         -6.091          122.9          36.98         -131.8          47.63          111.6
    0.7635              -21.76          32.23          10.65          62.45          7.536          -6.07          122.5          36.93         -131.9          47.57          111.5
    0.7882              -21.81          32.14          10.82          62.37          7.521         -6.047          121.9          36.87         -132.0          47.51          111.4
    0.8128              -21.87          32.04          11.01          62.28          7.503          -6.02          121.3          36.79         -132.1          47.43          111.4
    0.8374              -21.94          31.92          11.25          62.18          7.482         -5.989          120.5           36.7         -132.2          47.34          111.3
     0.862              -22.03          31.78          11.52          62.06          7.457         -5.951          119.7           36.6         -132.4          47.23          111.2
    0.8867              -22.13          31.62          11.84          61.91          7.428         -5.907          118.6          36.48         -132.6           47.1          111.0
    0.9113              -22.25          31.42          12.23          61.74          7.393         -5.854          117.4          36.34         -132.8          46.95          110.9
    0.9359              -22.39          31.18           12.7          61.53          7.351          -5.79          115.9          36.16         -133.0          46.76          110.7
    0.9606              -22.57          30.88          13.27          61.27          7.299         -5.711          114.0          35.94         -133.4          46.54          110.4
    0.9852              -22.79          30.52          13.98          60.96          7.235         -5.614          111.7          35.68         -133.8          46.26          110.2
      1.01              -23.06          30.07          14.86          60.56          7.156         -5.494          108.9          35.35         -134.3          45.91          109.8
     1.034               -23.4           29.5          15.97          60.06          7.055         -5.342          105.3          34.93         -134.9          45.47          109.3
     1.059              -23.84          28.78          17.38          59.43          6.928         -5.148          100.8           34.4         -135.7          44.91          108.8
     1.084               -24.4          27.85          19.19          58.62          6.764         -4.901          94.99          33.72         -136.7           44.2          108.0
     1.108              -25.12          26.67          21.51          57.58          6.555         -4.583          87.53          32.85         -138.1          43.28          107.1
     1.133              -26.03          25.15          24.47          56.26          6.287         -4.177          78.01          31.74         -139.8          42.11          105.9
     1.158              -27.18          23.24           28.2          54.59           5.95         -3.667          66.03          30.34         -141.9          40.64          104.4
     1.182              -28.59          20.92          32.74          52.56           5.54         -3.046          51.43          28.63         -144.5          38.85          102.5
     1.207              -30.22          18.22           38.0           50.2          5.065         -2.325          34.52          26.65         -147.5          36.77          100.4
     1.231              -31.98          15.31           43.7          47.65           4.55         -1.545           16.2          24.51         -150.7          34.52          98.07
     1.256              -33.74          12.39           49.4           45.1          4.035        -0.7647         -2.123          22.37         -154.0          32.27          95.75
     1.281              -35.37          9.696          54.66          42.74          3.559       -0.04413         -19.04           20.4         -157.0          30.19          93.62
     1.305              -36.77          7.371           59.2          40.71          3.149         0.5775         -33.64          18.69         -159.6          28.39          91.77
      1.33              -37.92          5.464          62.93          39.04          2.813          1.088         -45.61          17.29         -161.7          26.92          90.26
     1.355              -38.84          3.947          65.89          37.72          2.545          1.493         -55.14          16.18         -163.4          25.75          89.05
     1.379              -39.56           2.76          68.21          36.68          2.335          1.811          -62.6          15.31         -164.7          24.83          88.11
     1.404              -40.11          1.835          70.02          35.87          2.172          2.058         -68.41          14.63         -165.8          24.12          87.37
     1.429              -40.55          1.112          71.43          35.24          2.044          2.252         -72.95           14.1         -166.6          23.56           86.8
     1.453              -40.89         0.5431          72.54          34.74          1.944          2.404         -76.52          13.68         -167.2          23.12          86.35
